<svg width="576" height="512" viewBox="0 0 576 512" fill="none" xmlns="http://www.w3.org/2000/svg">
<g clip-path="url(#clip0_205_18)">
<path d="M287 12C275.308 12.0953 264.671 18.6719 259.592 29.1562L197.875 155.255L60.2585 175.461C48.7585 177.177 39.1751 185.183 35.6293 196.144C32.0835 207.105 34.9585 219.209 43.2001 227.311L143.058 325.578L119.483 464.448C117.567 475.886 122.358 487.514 131.846 494.281C141.333 501.048 153.888 501.906 164.238 496.473L287 431.184V12ZM422.988 500C424.042 500.095 425 500.095 426.054 500H422.988Z" fill="#E12727"/>
</g>
<path d="M287.9 0C297.1 0 305.5 5.25 309.5 13.52L378.1 154.8L531.4 177.5C540.4 178.8 547.8 185.1 550.7 193.7C553.5 202.4 551.2 211.9 544.8 218.2L433.6 328.4L459.9 483.9C461.4 492.9 457.7 502.1 450.2 507.4C442.8 512.7 432.1 513.4 424.9 509.1L287.9 435.9L150.1 509.1C142.9 513.4 133.1 512.7 125.6 507.4C118.2 502.1 114.5 492.9 115.1 483.9L142.2 328.4L31.1099 218.2C24.6499 211.9 22.3599 202.4 25.1999 193.7C28.0299 185.1 35.4999 178.8 44.4899 177.5L197.7 154.8L266.3 13.52C270.4 5.249 278.7 0 287.9 0ZM287.9 78.95L235.4 187.2C231.9 194.3 225.1 199.3 217.3 200.5L98.9799 217.9L184.9 303C190.4 308.5 192.9 316.4 191.6 324.1L171.4 443.7L276.6 387.5C283.7 383.7 292.2 383.7 299.2 387.5L404.4 443.7L384.2 324.1C382.9 316.4 385.5 308.5 391 303L476.9 217.9L358.6 200.5C350.7 199.3 343.9 194.3 340.5 187.2L287.9 78.95Z" fill="#E12727"/>
<defs>
<clipPath id="clip0_205_18">
<rect width="552" height="488" fill="white" transform="translate(11 12)"/>
</clipPath>
</defs>
</svg>
