<svg xmlns="http://www.w3.org/2000/svg" style="enable-background:new 0 0 194.3 192.1" viewBox="0 0 194.3 192.1">
    <defs></defs>
    <path d="M86.9 23.9c-2.4-4.8-6.1-8.9-10.7-11.6-.7-.1-1.4 0-1.9.5-10.4 8.4-19 18.9-25.2 30.8-9.6 19.1-1.3 44-23.9 54.9 6.6-8.2 7.4-30.4 7.3-33.8-.9-23.8 14.6-46.1 28.5-52.5 2.4-1.1 4.9-2.1 7.4-2.8 0 0 2.3-.9-1.8-2.6C49.7 1.6 30.5 10.5 18.5 26-.3 50.3-8.1 76 11.1 96.4c5.1 4.9 11.5 8.1 18.5 9.3 13 1.2 26.2-2.9 45.9-28.3 16.4-21.3 17.2-40.9 11.4-53.5zM119.3 90.9c-4.4-3.2-9.6-5-14.9-5.2-.7.2-1.2.7-1.5 1.3-5.2 12.3-7.9 25.6-7.7 39 .5 21.3 19.5 39.5 4.7 59.7 1.9-10.3-7.7-30.3-9.4-33.3-12-20.5-8.8-47.5.5-59.7 1.6-2.1 3.3-4.1 5.2-5.9 0 0 1.6-1.9-2.8-1.4C76 88.8 63.3 105.6 59.9 125c-5.2 30.3 0 56.7 26.5 65.7 6.8 1.9 14 1.8 20.7-.4 12.1-5 21.8-14.8 27.2-46.5 4.5-26.7-3.9-44.4-15-52.9zM162.8 100.6c5.4-.4 10.5-2.3 14.8-5.6.4-.6.5-1.3.3-2-3.9-12.8-10.4-24.7-19.2-34.9-14.1-16-40.4-17.7-41.9-42.7 5.2 9.2 25.4 18.3 28.6 19.4 22.4 8.1 37.3 30.8 38 46.1.2 2.6.1 5.3-.2 7.9 0 0 0 2.5 3.1-.7 11.1-13.8 10.1-34.9.2-51.8C171.1 9.7 150.1-7.2 124 3c-6.4 2.9-11.9 7.7-15.6 13.7-6 11.6-7.2 25.4 9.1 53.1 13.5 23.3 31.4 31.4 45.3 30.8z"></path>
</svg>